/* XPM */
static char *_d33768b824e45bec3275768a42607cfOpiteSwRODanhK71[] = {
/* columns rows colors chars-per-pixel */
"32 32 87 1 ",
"  c #42133E",
". c #43133E",
"X c #342444",
"o c #352444",
"O c #352445",
"+ c #38284E",
"@ c #39284E",
"# c #38294E",
"$ c #2C334C",
"% c #2D334C",
"& c #2C334D",
"* c #362E54",
"= c #362F54",
"- c #362E55",
"; c #362F55",
": c #372F55",
"> c #3B2E5A",
", c #3B2F5A",
"< c #3A2E5B",
"1 c #3B2E5B",
"2 c #3B2F5B",
"3 c #2E3E5E",
"4 c #2F3E5E",
"5 c #2F3F5E",
"6 c #2E3E5F",
"7 c #2F3F5F",
"8 c #383660",
"9 c #393660",
"0 c #383661",
"q c #393661",
"w c #383761",
"e c #393761",
"r c #383D64",
"t c #393D64",
"y c #383C65",
"u c #421442",
"i c #431442",
"p c #421542",
"a c #431542",
"s c #431443",
"d c #431543",
"f c #441646",
"g c #441746",
"h c #441647",
"j c #441747",
"k c #441A4A",
"l c #441B4A",
"z c #451A4B",
"x c #441B4B",
"c c #451B4B",
"v c #471E54",
"b c #461F54",
"n c #471F54",
"m c #42204F",
"M c #42214F",
"N c #43214F",
"B c #462258",
"V c #462259",
"C c #472259",
"Z c #472359",
"A c #48245E",
"S c #48245F",
"D c #49245F",
"F c #48255F",
"G c #1F424E",
"H c #1F424F",
"J c #124C4E",
"K c #134C4F",
"L c #124D4F",
"P c #1D4656",
"I c #1C4756",
"U c #1C4757",
"Y c #1D4757",
"T c #125356",
"R c #135356",
"E c #125257",
"W c #135257",
"Q c #15645E",
"! c #14645F",
"~ c #15655F",
"^ c #304865",
"/ c #314865",
"( c #304965",
") c #205A60",
"_ c #205B60",
"` c #215B60",
"' c #205B61",
/* pixels */
"           u   uc:JJOa...    .. ",
"    uffccffu  ffv<UH%OOXfsu     ",
"   ucvCSDCNluacvDD<6`WJP@csu    ",
"ccfcvCqqqq:#ffvDqtt^WQEU&@cffs  ",
"AAAAS<UEEEKH#BAq)Q~_/tw^PP<Cncu ",
"qq8806HKKKWY%;e/)!Q_0SS<PP6qCncf",
"WWRREH&o#=86YRQ)/ttqSvxx<3UU1DDA",
"KKEWWH&ocnA<HKE),FFCvxggn1PP6000",
"==88q7HH#vvNOOXOxccffs uaN<6PRRR",
"lBCAZ<YY&#xcguus u  .   acAqIRRE",
"fffffN,5UH#Ccxclu  ... ucnDAqqqq",
".  . gB<UU$=:::;cus .. cvDADSSSA",
". ....jN<6YKKRQ':xu  ..uBDDZNggc",
"  .aglo#<6YRRRQ)6:cuuufN8tt<Ngs ",
" ..fb<)QEY388qt/``:xccc:)QRU,Zgu",
"fffNq^)QWY<AAAAq`W3==::7_QRP6<xf",
"cvZe))^t8<NfgggberYE~~!'/e#$HU<F",
":;q/_)qAACf.  ufC1YEQ!!'qbfXHP68",
"LWQ'/qNgcus. . sgN,ttrt8Nguf#$PE",
"WEQ_6,f ..aafs   fbFCFFBf..ac#HK",
"qet(UHO .ullccs  sglCBBBa   uuoo",
"AAF,UH&OXXlCCvcsssuuccccaafccuau",
"cugN<6HKLP<ASSvcccfjfssusabAFBaf",
"  guN<HKRU5erqCZBbNxu..sxb<ttqNf",
" ..ffc#=e6YR!_eACcfa...fb<YR!_8A",
"XXaufc#=q6YRQ_/eFCa .ugc<6PR!_/t",
"KHoub<HJWP6qt/_'wZfu.ab1UU38t/_Q",
"KP$#16PEKH1DAqQQrFg..l<6UH<AAe'Q",
"=$HJRP6<@OfcB=EE0Sgu.XPP$=cfgNqt",
"c+HJJH<bf  ac#HH6,NusXHH@cu.afvA",
"ua+==+cau   u X$HP<Cuu@@cus .fgl",
".acbbcs.      .oKEqFcuxcu ......"
};
