/* XPM */
static char *_6e1ce4108284493d01424989b0c1501LFmaLgvxiL2Rgv7M[] = {
/* columns rows colors chars-per-pixel */
"40 40 38 1 ",
"  c #181425",
". c #191527",
"X c #2A2E47",
"o c #1A1729",
"O c #1E1C30",
"+ c #212137",
"@ c #23233A",
"# c #1B182B",
"$ c #1F1E34",
"% c #1C1A2E",
"& c #24263E",
"* c #FFD800",
"= c #303550",
"- c #363E5C",
"; c #FFDA00",
": c #2C314C",
"> c #333956",
", c #262840",
"< c #272A43",
"1 c #3B4463",
"2 c #414B69",
"3 c #8F631A",
"4 c #9B8726",
"5 c #FFCB00",
"6 c #4F5D7C",
"7 c #465171",
"8 c #8F7B1A",
"9 c #887316",
"0 c #C3A40B",
"q c #4B3D25",
"w c #E5C104",
"e c #2F2E3A",
"r c #FAD300",
"t c #837324",
"y c #85683C",
"u c #625319",
"i c #5B4F46",
"p c #724E1A",
/* pixels */
"1-XO@-2=O  %:21,. .+=-XO@-2=O  %:21,.   ",
"1-<%@-2=O  %:21,.  $:><%@-2=O  %:21,.   ",
">=&%+>1:O  %X1-&.  O<:&%+>1:O  %X1-&.   ",
"X<+#+=-X%  #<->@. .%&<+#+=-X%  #<->@.  .",
"@+Oo$:><%  #&=:+o%+@@+Oo$:><%  #&=:+o%+@",
"%%o.%,X@#  o+X<O#,>=&%o.%,X@#  o+X<O#,>-",
"  ..%@&+O#.o$<&%%X1-,o .%@&+O#.o$<&%%X27",
"  #O$$+,X,O#@:X$%X1-&o#O$$+,X,O#@:X$%X17",
" .O@@OOX1>&%,>=+%<->@oO@@OOX1>&%,>=+%<-1",
" .$&@%%X1-&#@:X$o@:X$o$&@%%X1-&#@:X$#@:>",
" .$&@%%X->ep3333333333333333y-&o%+$#.%+@",
".o$&@%#,>=@qq45555555555554qi=@. .......",
"$$$$Ooo@:X$  9;**********;9+:X$.  .%O#. ",
"&&$#. o$<&O. 9************9$<&O.  #+@$o ",
">=,#.o%$++O#.9*****rr*****9$++O#o %&X@# ",
"72=Oo$+$OO$+%9****;00;****8$OO$+%.$X=<# ",
"66-$#+&$o%@,$9**rw0uu0wr**8$o%@,+o$=-X% ",
"66>$#@&$oO<:@9***0q  q0***8$oO<:&#+=-X% ",
"67=O#@&$o$:><8***;4..4;***8$o$:><%+=-X% ",
"72:OO<:&#O<=X8****8888***;8@#O<=X,<::&# ",
"21:O+=-X%o$&:4***rw**wr***4X%o$&:>>X@O. ",
"1-X%@-2=O  %:4***********;4=O  %:1-,o   ",
">=&%+>1:O  #X4************4:O  #X1-&.   ",
"X<+#+=-X%  #<4***;*ww*;**;4X%  #<->@.  .",
"@+Oo$:><%  #&4;*w0tqqt0w*;4<%  #&=:+o%+@",
"%%o.%,X@#  o+t09qe==&%#q90t@#  o+X<O#,>-",
"  ..%@&+O#.o$ee%%X1-,o .%ee+O#.o$<&%%X27",
"  #O$$+,X,O#@:X$%X1-&o#O$$+,X,O#@:X$%X17",
" .O@@OOX1>&%,>=+%<->@oO@@OOX1>&%,>=+%<-1",
" .$&@%%X1-&#@:X$#@:X$o$&@%%X1-&#@:X$#@:>",
" .$&@%%X->&o%+$#.%+$#.$&@%%X->&o%+$#.%+@",
".o$&@%#,>=@. ........o$&@%#,>=@. .......",
"$$$$Ooo@:X$.  .%O#..%$$$Ooo@:X$.  .%O#. ",
"&&$#. o$<&O.  #+@$o#+&$#. o$<&O.  #+@$o ",
">=,#.o%$++O#o %&X@#OX=,#.o%$++O#o %&X@# ",
"72=Oo$+$OO$+%.$X=<%@-2=Oo$+$OO$+%.$X=<# ",
"66-$#+&$o%@,+o$=-XO,26-$#+&$o%@,+o$=-X% ",
"66>$#@&$oO<:&#+=-XO,17>$#@&$oO<:&#+=-X% ",
"67=O#@&$o$:><%+=-XO&-2=O#@&$o$:><%+=-X% ",
"72=O#@&$o+=-XO+=-XO@-2=O#@&$o+=-XO+=-X% "
};
