/* XPM */
static char *result[] = {
/* columns rows colors chars-per-pixel */
"40 40 117 2 ",
"   c #171325",
".  c #23253C",
"X  c #1E1D31",
"o  c #1E1D33",
"O  c #1C1A2E",
"+  c #1C1A2D",
"@  c #1D1B2F",
"#  c #191628",
"$  c #212238",
"%  c #191527",
"&  c #1F1F34",
"*  c #272942",
"=  c #1A182A",
"-  c #1B192B",
";  c #212036",
":  c #303653",
">  c #2D304B",
",  c #292D47",
"<  c #232439",
"1  c #292B45",
"2  c #353D5D",
"3  c #24263D",
"4  c #2D324F",
"5  c #FFD73B",
"6  c #FFCF15",
"7  c #FFDB4A",
"8  c #3A415E",
"9  c #31344D",
"0  c #181426",
"q  c #FFD52E",
"w  c #26273E",
"e  c #FFD320",
"r  c #414B69",
"t  c #3B4464",
"y  c #353C58",
"u  c #FFD427",
"i  c #323958",
"p  c #FFDF5F",
"a  c #FFCF0A",
"s  c #444E6D",
"d  c #FFA90A",
"f  c #FFAA20",
"g  c #FFB335",
"h  c #FFD446",
"j  c #FFC427",
"k  c #624B23",
"l  c #495573",
"z  c #FFA30F",
"x  c #FFDD55",
"c  c #E5C248",
"v  c #363B53",
"b  c #FFCA32",
"n  c #393232",
"m  c #F8B41D",
"M  c #E6AE0F",
"N  c #FFBB1F",
"B  c #FFC114",
"V  c #E7C453",
"C  c #926F21",
"Z  c #FE9F1D",
"A  c #FFCF53",
"S  c #E0AE36",
"D  c #FDCF29",
"F  c #FFAF03",
"G  c #FFD75F",
"H  c #4D5978",
"J  c #414964",
"K  c #30292A",
"L  c #E0A00F",
"P  c #A07513",
"I  c #8E7738",
"U  c #AA7F19",
"Y  c #534326",
"T  c #494649",
"R  c #E3A023",
"E  c #F8920A",
"W  c #F67001",
"Q  c #FCD333",
"!  c #E98408",
"~  c #FF7807",
"^  c #F8C80D",
"/  c #A36510",
"(  c #546282",
")  c #463C2F",
"_  c #FED23B",
"`  c #FFCE3B",
"'  c #7A632A",
"]  c #24202B",
"[  c #FFDA56",
"{  c #9C8227",
"}  c #AD8536",
"|  c #F1AC1D",
" . c #F7C52B",
".. c #FE9C00",
"X. c #D47F0B",
"o. c #C18D14",
"O. c #D29733",
"+. c #6B5D49",
"@. c #655835",
"#. c #B37413",
"$. c #FFBC4A",
"%. c #FE8700",
"&. c #FFC343",
"*. c #FFC500",
"=. c #F4C009",
"-. c #F4C755",
";. c #F1AB3C",
":. c #955F0D",
">. c #E9BF25",
",. c #D09A0A",
"<. c #CC8F22",
"1. c #FF9C35",
"2. c #EB9F27",
"3. c #ECC53C",
"4. c #F7BD32",
"5. c #BB7000",
"6. c #231D33",
/* pixels */
"t 2 1 @ w 8 r 9 @ 0 0 @ 9 r 8 w % 0 % $ : 2 1 @ w 8 r 9 @ 0 0 @ 9 r 8 w % 0 0 0 ",
"t y * @ w 8 r 9 @ 0 0 @ 9 r 8 w % 0 % ; 4 i * @ w 8 r 9 @ 0 0 @ 9 r 8 w % 0 0 0 ",
": 4 3 + . y t > @ 0 0 @ > t y . % 0 0 o , 4 3 + . y t > @ 0 0 @ > t y . % 0 0 0 ",
", * ; - < : 2 , + 0 0 + , 2 : < % 0 % X 3 * ; - < : 2 , + 0 0 + , 2 : < % % % % ",
"< $ @ = ; > : w + 0 0 + w : > ; = X < 3 . $ @ = ; > : w + 0 0 + w : > ; = X < w ",
"@ + = % X * , < = 0 0 = < , * X + * y : 3 @ = % X * , < = 0 0 = < , * X + * y 8 ",
"0 0 % = @ < 3 $ X + # = ; * w @ @ 9 J 8 w # % = @ < 3 $ X + # = ; * w @ @ 9 r l ",
"0 % + X & & $ * > * X + 3 4 , o @ > t y . # + X & & $ * > * X + 3 4 , o @ > t s ",
"0 # X . $ @ X > t y < @ * i 4 ; @ 1 2 : $ = X . $ @ X > t y < @ * i 4 ; @ 1 2 t ",
"0 = & w < + @ > J 2 3 + . > 1 X - . > 1 X = & w < + @ > J 2 3 + . > 1 X - . 4 : ",
"0 = & w < O @ , 8 i < = @ ; o #   O ; o = # o 3 $ O O , 2 i $ = @ ; o - # @ ; $ ",
"= - & . $ + + 1 y 4 ; %   ] ) k Y ]   # K Y ' C P P P C I @.n =   0 % # # # % % ",
"& & & & @ = - 3 4 , o - k o.| m | } k U L m j b ` ` ` b j m L U k ] # @ X + % 0 ",
"* w ; - # % = ; * . n U m b h h b f  .j h [ p p p p p p p p h b m U K $ . o # 0 ",
"y : w - % - @ & $ Y ,.j [ x 7 5 D f g B 7 7 7 7 7 7 7 7 7 7 7 7 h N I * , < = 0 ",
"l s 9 X - & $ & k M ` p x 7 5 q B f 1... .5 5 5 5 5 5 5 5 5 5 5 5 j O.v : w - 0 ",
"( H v X + < 3 k M h p x 7 5 q e d g ~ W M u u u u u u u u u u u j z S T 2 1 + 0 ",
"( l v X + $ ) L h p x 7 5 q e B f &.%.W X.B 6 6 6 6 6 6 6 B B d Z g N } 8 1 + 0 ",
"H s 9 X O n o.b p x 7 5 q e 6 z &.6 F X.<.f z d d d d d z f g $.1.E F R J 1 + 0 ",
"s r > @ o C N p x 7 5 q e 6 F g 5 a =.#.S G G A A A A A A h b z ~ %.E S T . - 0 ",
"r t , @ ) L h x 7 5 q e 6 F f [ 6 a ,./ | D q q q u e 6 a a *...W ! g S n O % 0 ",
"t 2 * O C j x 7 5 q e 6 F f G e a M :./ S 3.Q D e 6 6 ^ ^ =.M R 2.;.Z L K   0 0 ",
": 4 . ] <.` 7 5 q e 6 F f G q 6 ^ P :.X.Z ;.V V V c c c V V -.` f ~ ~ P # 0 0 0 ",
", * & K R _ 5 q e B z g G q e >.U C / ! z N D q Q Q Q q e 6 a *...~ X.n 0 % % % ",
"< $ @ K O.N j N d z $.G q u >.@.k / O.;.R |  .D e e 6 6 a a ^ =.! ! o.< = X < w ",
"@ + = = ' f Z Z g $.&.j q S @.X Y 5.E g -.-.V V c c c c c c >.2.W %.C X + * y 8 ",
"0 0 % # 6.I 4.g Z z d m } T . @ ] :.E z N Q 5 5 5 _ Q D 6 a *...W / n @ @ 9 r l ",
"0 % + X & & ' L E ! #.k w 4 , o @ > +.} R  .q u e e 6 a a ^ M #.k 9 , o @ > t s ",
"0 # X . $ @ X T +.T < O * i 4 ; @ 1 2 : n Y ' I { { { { I +.) ] * i 4 ; @ 1 2 t ",
"0 = & w < + @ > t 2 3 + . > 1 X - . > 1 o # o 3 $ O O 4 t 2 . + . > 1 X - . 4 : ",
"0 = & w < O @ , 8 i < = @ ; o - # @ ; o - = & w < O @ , 8 i < = @ ; o - # @ ; $ ",
"= - & . $ + + 1 y 4 ; % 0 % % # # # % % # - & . $ + + 1 y 4 ; % 0 % % # # # % % ",
"& & & & @ = - 3 4 , o % 0 0 = @ X + % = @ & & & @ = - 3 4 , o % 0 0 = @ X + % 0 ",
"* w ; - # % = ; * 3 @ % 0 0 + $ . o = + < 3 ; - # % = ; * 3 @ % 0 0 + $ . o # 0 ",
"y : w - % - @ & $ ; X + = % X * , < - ; > : w - % - @ & $ ; X + = % X * , < = 0 ",
"l s 9 X - & $ & @ X ; ; @ = ; > : w O w 8 r 9 X - & $ & @ X ; ; @ = ; > : w - 0 ",
"( H v X + < w & = @ 3 * ; - $ : 2 1 @ * r H v X + < w & = @ 3 * ; - $ : 2 1 + 0 ",
"( l v X + < w & = o , 4 3 + $ : 2 1 @ * J l v X + < w & = o , 4 3 + $ : 2 1 + 0 ",
"H s 9 X + < w & = ; 4 i * @ $ : 2 1 @ w 8 s 9 X + < w & = ; 4 i * @ $ : 2 1 + 0 ",
"l s 9 X O < w & = $ : 2 1 @ $ : 2 1 @ w 8 r 9 X O < w & = $ : 2 1 @ $ : 2 1 + 0 "
};
