/* XPM */
static char *result[] = {
/* columns rows colors chars-per-pixel */
"40 40 202 2 ",
"   c #181325",
".  c #1F1F33",
"X  c #23243B",
"o  c #1C192C",
"O  c #1B182B",
"+  c #E6F5FF",
"@  c #1D1B2F",
"#  c #191527",
"$  c #43A5FD",
"%  c #E5F5FF",
"&  c #201F36",
"*  c #1E1D31",
"=  c #1A1628",
"-  c #272A42",
";  c #222238",
":  c #42A3F9",
">  c #A0D2FC",
",  c #25273F",
"<  c #303654",
"1  c #2D314B",
"2  c #292C46",
"3  c #848C9A",
"4  c #E4F5FF",
"5  c #171122",
"6  c #2A2E49",
"7  c #343C56",
"8  c #B2DBFE",
"9  c #46A4F9",
"0  c #44A5F9",
"q  c #353C5C",
"w  c #2D344F",
"e  c #3F8AD3",
"r  c #8F9BAD",
"t  c #38415E",
"y  c #46FFE0",
"u  c #878F9F",
"i  c #313649",
"p  c #48E3E8",
"a  c #41D1BD",
"s  c #42D5C0",
"d  c #404A68",
"f  c #3FC8B6",
"g  c #3676B6",
"h  c #4B5776",
"j  c #455465",
"k  c #434E6C",
"l  c #DAEEFB",
"z  c #46606C",
"x  c #3EC2B3",
"c  c #9FF9F2",
"v  c #3B85CC",
"b  c #3C4566",
"n  c #8A95A7",
"m  c #929FB3",
"M  c #7FBFB8",
"N  c #347F81",
"B  c #90DACF",
"V  c #76ABAE",
"C  c #3778B9",
"Z  c #2A4F58",
"A  c #1B2735",
"S  c #307577",
"D  c #333F4C",
"F  c #79B8B2",
"G  c #4BE5CE",
"H  c #689899",
"J  c #3AB3A6",
"K  c #75B3AF",
"L  c #5A7F85",
"P  c #2E6F73",
"I  c #384262",
"U  c #242D3D",
"Y  c #71ABA9",
"T  c #41D9C3",
"R  c #2D4154",
"E  c #3574B4",
"W  c #8892A2",
"Q  c #37AC9F",
"!  c #8DD5CB",
"~  c #93DDD4",
"^  c #4D6B73",
"/  c #44E1CA",
"(  c #517079",
")  c #222738",
"_  c #699F9F",
"`  c #24404C",
"'  c #3882CB",
"]  c #67EED8",
"[  c #3ECEB9",
"{  c #4FECD4",
"}  c #294A59",
"|  c #8ACFC6",
" . c #328985",
".. c #90D9D1",
"X. c #3B8E90",
"o. c #465271",
"O. c #5F8C8E",
"+. c #282F42",
"@. c #28585E",
"#. c #44DEC8",
"$. c #82C9C1",
"%. c #54627C",
"&. c #397BBD",
"*. c #396073",
"=. c #38536A",
"-. c #98A5B9",
";. c #E7F9FF",
":. c #35A096",
">. c #359A92",
",. c #70A4A5",
"<. c #6FFFE8",
"1. c #3B505D",
"2. c #A8F9F3",
"3. c #52B3AC",
"4. c #223646",
"5. c #3ABAAA",
"6. c #7BC3BD",
"7. c #93E3D7",
"8. c #64FFE8",
"9. c #2A6366",
"0. c #33928B",
"q. c #525669",
"w. c #53717E",
"e. c #52DECB",
"r. c #18EBC3",
"t. c #8EF1E1",
"y. c #BADBF0",
"u. c #85FBE6",
"i. c #204F8D",
"p. c #253353",
"a. c #95F6E5",
"s. c #1885F8",
"d. c #2B686A",
"f. c #36777F",
"g. c #7DB9B9",
"h. c #6FDACA",
"j. c #354653",
"k. c #439F9A",
"l. c #22DEBE",
"z. c #1F4E54",
"x. c #81D9CC",
"c. c #3B4B5A",
"v. c #4DF4D9",
"b. c #58C1B8",
"n. c #3A4860",
"m. c #53FBDF",
"M. c #2C5C64",
"N. c #76CBC0",
"B. c #2AF6D1",
"V. c #116761",
"C. c #576585",
"Z. c #2F5584",
"A. c #849DB6",
"S. c #1871D3",
"D. c #365D6D",
"F. c #73859B",
"G. c #9EC7EC",
"H. c #389CFA",
"J. c #C0E3F8",
"K. c #7FDFF3",
"L. c #CBF6FA",
"P. c #D4F7FC",
"I. c #3B7F89",
"U. c #5BD5C5",
"Y. c #5F898A",
"T. c #7F92AA",
"R. c #BFF8F8",
"E. c #97E0D7",
"W. c #3FB4AC",
"Q. c #11B69C",
"!. c #30B9A9",
"~. c #88DDD1",
"^. c #469790",
"/. c #4CD1BE",
"(. c #95E6D9",
"). c #9AA6B7",
"_. c #778BA3",
"`. c #B0CFEB",
"'. c #376091",
"]. c #1B63B5",
"[. c #3171B3",
"{. c #24406E",
"}. c #1F66BA",
"|. c #409AEB",
" X c #228FFF",
".X c #2A95FF",
"XX c #A5D3FF",
"oX c #85BBF0",
"OX c #316AA5",
"+X c #92C9FE",
"@X c #51586F",
"#X c #A0D3FD",
"$X c #1B7C73",
"%X c #09CAA8",
"&X c #40ECD1",
"*X c #3C7276",
"=X c #437B82",
"-X c #883C42",
";X c #2D9A25",
":X c #191333",
">X c #181F3B",
",X c #1F242C",
/* pixels */
"b q 2 @ i n -.r u 3 3 u r -.m n 3 3 3 W r m n u n m -.r u 3 3 u r m _.i #       ",
"I q - O q.l 4 4 4 4 4 4 4 4 4 % + + + + + + + + % 4 4 % % % 4 4 4 l y.j         ",
"< w X O q.l 4 4 4 4 4 4 4 4 4 L.c c c c c c c c L.% 4 2.R.2.4 4 4 l y.j         ",
"2 - & # q.l + + + + + + + + P.<.y y y y y y y y <.P.4 2.R.2.4 + + l y.j   # # # ",
"X ; @ # i ).`.8 8 8 8 8 8 8 K.p p p p p p p p p p K.8 8 8 8 8 8 XXG.A.i = * X , ",
"@ o = # * - '.9 9 9 9 9 9 9 0 0 0 0 0 0 0 0 0 0 0 0 9 9 9 9 9 H.s.i.- * o - 7 t ",
"  # # = @ ; p.e $ $ $ $ $ $ $ $ $ $ $ $ $ $ $ $ $ $ $ $ $ $ $  XS.p.X @ @ 1 d o.",
"  # o . . . & Z.e e v ' v e e v ' e e e v ' ' v v v v e e e ' S.i.1 2 . @ 1 b k ",
"  = . X ; @ * 1 d t - & 6 q < , & 6 I q , * X - , & X < d t - & - 7 w & @ 2 t b ",
"  = . , X o @ 1 b q X o X 1 - * . } R - @ # * X ; o @ 1 b q X o X 1 2 . o X 1 < ",
"  = . , X @ @ 6 t < &   @ X U +.:.&XQ.Z D D D 7 i ) . 6 t < ; = @ & . O = @ & ; ",
"= o . X ; o O - n.z ( Y.,.M | x.m.y r.h.B B B B ! | M K ,.L c..     # = = = # # ",
". . . . @ = D H ! ~ | F H L ^ z !.r.Q.Z j.c.1.j z ^ L _ M ! ~ $.O.D = @ * o #   ",
"- , & o   z B M L 1.U O   5 = & 4.z.A O & X * =   5 # & 2 i j.( M B z & X . =   ",
"7 < , o = K M +.* * @ O     @ - 6 X * ) w 7 +.@ = O o * & . o   ) M F - 2 ; O   ",
"h k i * O ^ ~ F ( R ` M.P  .:.J x x x f a a f 5.Q :. .S @.` j.( F B ^ 6 < , o   ",
"C.h 7 * o ; z h.<.{ G m.8.8.] U.b.3.k.k.3.b.3.3.U.] 8.8.m.G { <.h.1.; < q 2 o   ",
"%.h 7 * o } x T Q S =X_ K M | ..~ ..B B E.E.~ ! ! | $.Y O.*XN W.T 5.} < q 2 o   ",
"h k w * @ Q f ` = . 1 < - . +.n.k n.D 1.%.C.j i U +.- .   ; w < } f J < q 2 o   ",
"o.d 1 @ * X./  .` ) 1 n.j z w.O.H H H _ V V _ Y.L w.^ c.Z 5.!.P X.#.X.1 1 X O   ",
"d I 6 @ ; 7 X.G ] N.$.7.a.a.t.~.$.F K K g.6.6.$.~.t.a.t.] y B.r.G X.7 - ; @ #   ",
"I q - @ X d V (.! ,._ b.e.{ { / s [ f f a s a s #.{ { e.s B.r.s (.V d , =       ",
"< w X o X ,.~ ( U     . R *.*.M.@.9.d.S N N P 9.M.*.*.R U V.V.4.( ~ ,.X #       ",
"2 - & O ; Y ..z ; 5 5 @ w =.=.Z z.@.@.9.P P 9.Z Z =.=.w @ 5 5 ; z ..Y ; # # # # ",
"X ; @ = . t V 7.N.^.0.J a G G #.s s s a a a a s #.G G a J 0.^.N.7.V t . = * X , ",
"@ o = # * - f.e.v.s /.] u.u.t.x.6.F F K Y Y K 6.x.t.u.u.] /.s v.e.f.- * o - 7 t ",
"  # # = @ N / >.Z ) . i j w.L O.H V g.g.V ,._ H O.L ^ j D ) A z.>./ N @ @ 1 d o.",
"  # o * & J x R 1 @.` o ; 6 - @ o 6 b q X = O @ * @ . , 6 , o = ` f J . @ 1 b k ",
"  = . X ; Z f T x v.l.V.2 7 1 . O - q w & # @ ; & o * w =.D.P >.T s D.& @ 2 t b ",
"  = . , X o U N / y B.l.x W.k. .S S f.S d.d.P N  .0.Q f #./ s Q S R - . o X 1 < ",
"  = . , X @ o 2 I.l.%X$XN >.Q 5.x [ [ a a [ [ f x J >.X.I.*.4.O o & . O = @ & ; ",
"= o . X ; o o - 7 } 4.  5   = o * . A A A A U +.X o O - < w & #   # # = = = # # ",
". . . . @ = o , w 2 . = # # O * . @ = O * & & & * O o , w 6 & = # # = @ * o #   ",
"- , & O O Z.g C &.&.g E E E g C C g E g C C C g E E E C &.&.g E [.].i.X X . =   ",
"7 < , = p.|.$ $ $ $ $ $ $ $ $ $ $ $ $ $ $ $ $ $ $ $ $ $ $ $ $ $ $ .Xs.{.2 ; O   ",
"h k i * OX$ : : : : : : : : : : : : : : : : : : : : : : : : : : : H.s.}.< , o   ",
"C.h %.r G.#X> > > > > > > > > > > > > > > > > > > > > > > > > > > > +XoXA.j O   ",
"%.o.r ;.+ + + + + + + + + + + + + + + + + + + + + + + + + + + + + + + l J.F.O   ",
"h k n % 4 4 4 4 4 4 4 4 4 4 4 4 4 4 4 4 4 4 4 4 4 4 4 4 4 4 4 4 4 4 4 l J.F.O   ",
"h k @X3 3 W W u 3 u r m n 3 u r m n 3 W m -.r 3 3 W W u 3 u r m n 3 u T.T.d o   "
};
