/* XPM */
static char *_b54343eb02841ab8d620e6f8945cfc1zZxiKhKVhbOGa5XO[] = {
/* columns rows colors chars-per-pixel */
"40 40 74 1 ",
"  c #191527",
". c #09080E",
"X c #1F1F34",
"o c #1E1E31",
"O c #1C1A2D",
"+ c #1A192B",
"@ c #0A0B12",
"# c #050408",
"$ c #171425",
"% c #07060C",
"& c #0D0D15",
"* c #E6F8FF",
"= c #191828",
"- c #1D1C2F",
"; c #010102",
": c #23243B",
"> c #44A6FE",
", c #212237",
"< c #1A4369",
"1 c #13121F",
"2 c #100F19",
"3 c #25273D",
"4 c #141522",
"5 c #2A2D46",
"6 c #636A6F",
"7 c #353D5A",
"8 c #2D314B",
"9 c #10111B",
"0 c #7A8389",
"q c #5E6468",
"w c #1D4970",
"e c #313753",
"r c #2F344E",
"t c #3B4463",
"y c #272941",
"u c #1E4B73",
"i c #434D6D",
"p c #272B43",
"a c #4D5978",
"s c #1D7161",
"d c #61676A",
"f c #0A2622",
"g c #4F5357",
"h c #238675",
"j c #D9EFFD",
"k c #3C8DD6",
"l c #219F89",
"z c #1F2425",
"x c #596064",
"c c #0E3D6D",
"v c #225481",
"b c #0F4F43",
"n c #3AEFD0",
"m c #07382F",
"M c #4B6A94",
"N c #747E85",
"B c #092848",
"V c #2A2F32",
"C c #939DA4",
"Z c #B9C9D5",
"A c #CBDEEB",
"S c #6C7479",
"D c #26B89E",
"F c #4E5D65",
"G c #3D4245",
"H c #258EF7",
"J c #313A3F",
"K c #0F3255",
"L c #001832",
"P c #A8B4BC",
"I c #193E5F",
"U c #0D253A",
"Y c #4EA0E9",
"T c #091F31",
/* pixels */
"t75-,=1&%##%&49@###.29&%@94&%##%&44o $$$",
"t7p-4zN00000000000000000000000000NV& $$$",
"er3O9Gj********Cgggggggg0**ZAZ***jF@ $$$",
"5p,O2Gj*******PzshhhhhhsfCASCN***jF@    ",
":,-+14q6ddddddz&ssssssssf2xxqxdd6qz&+o:3",
"-O= O4#9<<<<<<<<<<<<<<<<<<<<<<<cL;9+Oy7t",
"$  =-:=Tk>>>>>>>>>>>>>>>>>>>>>>HB43--rii",
"$ OoXXX.KuuuuuuuuuuuuuuwvkkvwuuK@p5X-8ti",
"$ o:,-o:O4&.249@.241@.@&2:31=4&@o7r,-57t",
"$=X3:O-rt73O:85X41oyX+X3:O-8t73O:85o+:8e",
"$=X3:O-5t7:+-,X4@bf&  -:,O-8t7:=-XX+ -,,",
"=+X:,OOp78O2&..;bnl;##%...@4:yo         ",
"XXXX-+=+1@##%.&@flb%4 $19&@@@%#%&4+-oO $",
"y3X+ $.#2==$$ O,1%%$:3,O= +,3X4@#% ,:X $",
"7e3+ 9;=,,oO+ oy5X=X5r3+ +-X,,X-$#9y5,+$",
"air-+O..9=-+12219&.@29&.@&14$OO4.#+8ey+$",
"Ma7oO:,@;;#;;;;.92@9oo4.#;;;;#;;%$,e75O$",
"aaeoO,1#%1-+2%%@@.#%&&.##%@@&4+9%.Xe75O$",
"airo-=#4+,r7p-,8r:=Xr7p++,3X$1or,#4e75O$",
"ii8-X,.@1-p5:+=O+1&2=-422=X+.mf91%Xr8:+$",
"it5-,er2;#.#;;;%%%%&14&%%#;;fnD#@5ep,- $",
"t7p-37p.#.@@@@%%###.@@.##%@.9ls#%,73 $$$",
"er3O33%=+$$-57ro1994-,+4-8759##1o.o3 $$$",
"5p,+:3.1 $$+yrp=2&&94=49=yr3+14==%o:    ",
":,-=X8:.;#.%%####.@&@.%#####%%%;%X8X=o:3",
"-O= oy,@;#%##;;##.&&@.%###;##%%;%oyoOy7t",
"$  =-+#2+=4 o,-11O:o4&&21=oo-O $1# --rii",
"$ OoX$#=o@.&:r5X-8t73=OXXX,y8po+=%=X-8ti",
"$ o:,-9.#sDf=e8,-57e:+o:,O-y8,2%%O8,-57t",
"$=X3:O-3@lnm;@&@@9$42@&&@%%.@&&9X85o+:8e",
"$=X3:O-5ofm%149&@@@...&9121,ee:+-,X+ -,,",
"=+X:,OOpe,11   ==    OX3,OOp7r,         ",
"XXXX-9.&19&%%%....%%..@&.2p,19@%%%2-oO $",
"y3XO1.IwwwwwwwwwwwwwwwwwuvkMwwwwwc&=3X $",
"7eyO.K>>>>>>>>>>>>>>>>>>>>>>>>>>>Hc&5:+$",
"ai5&;U<<<<<vYkw<<<<<<<<<<<<<<<<<<cB;1oO$",
"Ma-VddqqqqqSAZ6qqqqqqqqqqqqqqqqqqqdxJ@+$",
"aa4S*******************************j0.+$",
"ai=V6666666666666666666666666666666qJ@+$",
"ai5@%.@%#.&9@%.&9@%.94&%%.@%#.&9@%.21XO$"
};
