/* XPM */
static char *result[] = {
/* columns rows colors chars-per-pixel */
"40 40 10 1 ",
"  c #1D1B2F",
". c #1A1729",
"X c #212137",
"o c #171223",
"O c #25263D",
"+ c #2F3450",
"@ c #292C45",
"# c #363E5B",
"$ c #404968",
"% c #4E5B7B",
/* pixels */
"$#@ O#$+ oo +$$O.ooX+#@ O#$+ oo +$$O.ooo",
"$#@ O#$+ oo +$#O.o.X+#@ O#$+ oo +$#O.ooo",
"#+O O#$+ oo +$#Oooo @+O O#$+ oo +$#O.ooo",
"@@X.X+#@ oo @##X.o. O@X.X+#@ oo @##X.o..",
"XX .X++@.oo.@++X. OOOX .X++@.oo.@++X. OO",
" ... @@X.oo.X@O  @#+O oo @@X.oo.X@O  @#$",
"o... XOX ...X@O  +$#O.o. XOX ...X@O  +$%",
"o.. X X@+@ .O+@  +$#O.. X X@+@ .O+@  +$%",
"o. OX  +$#X @#+X @#+X. OX  +$#X @#+X @#$",
"o.XOO. +$#O O+@ .O+@ .XOO. +$#O O+@ .O++",
"o.XOO. @$#O. X .. X ..XOO. @$#O. X .. XX",
"..XOX. @#+X.oo...o....XOX. @#+X.oo....o.",
"   X ..O+@ ooo.  .o.  XX ..O+@ ooo.  .oo",
"OOX..o.X@O .oo XO . XOX..o.X@O .oo XO .o",
"#+O.o. XXX  .. @@X.X++O.o. XXX  .. @@O.o",
"%$+ . XX  XX .X++O O$$+ . XX  XX .X++@.o",
"%%# .XOX. O@X.X+#@ @$%# .XOX. O@X.X+#@ o",
"%%# .XO . @+O.X+#@ @$%# .XO . @+O.X+#@ o",
"%$+ .XOX.X+#@ X+#@ O$$+ .XOX.X+#@ X+#@ o",
"%$+  @+O. @+@O@++X.O#$+  @+O. @+@O@++O.o",
"$$@ X##@ . O+##@X..O##@ X##@ . O+##@X .o",
"$#@ O#$+ oo +$#O.ooX+#@ O#$+ oo +$#O.ooo",
"#+O.O#$+ oo +$#Oooo @+O O#$+ oo +$#Ooooo",
"@OX.X+#@ oo @##X.o. O@X.X+#@ oo @##X.o..",
"XX .X++@.oo.@++X. OOOX .X++@.oo.@++X. OO",
" ... @@X.oo.X@O  @#+O oo @@X.oo.X@O  @#$",
"o... XOX ...X@O  +$#O.o. XOX ...X@O  +$%",
"o.. X X@+@ .O+@  +$#O.. X X@+@ .O+@  +$%",
"o. OX  +$#X @#+X @#+X. OX  +$#X @#+X @#$",
"o.XOO. +$#O O+@ .O+@ .XOO. +$#O O+@ .O++",
"o.XOO. @$#O. X .. X ..XOO. @$#O. X .. XX",
"..XOX. @#+X.oo...o....XOX. @#+X.oo....o.",
"   X ..O+@ ooo.  .o.  XX ..O+@ ooo.  .oo",
"OOX..o.X@O .oo XO . XOX..o.X@O .oo XO .o",
"#+O.o. XXX  .. @@X.X++O.o. XXX  .. @@O.o",
"%$+ . XX  XX .X++O O$$+ . XX  XX .X++@.o",
"%%# .XOX. O@X.X+#@ @$%# .XOX. O@X.X+#@ o",
"%%# .XOX. @+O.X+#@ O$%# .XOX. @+O.X+#@ o",
"%$+ .XO .X+#@ X+#@ O$$+ .XO .X+#@ X+#@ o",
"%$+ .XO .X+#@ X+#@ O#$+ .XO .X+#@ X+#@ o"
};
