/* XPM */
static char *result[] = {
/* columns rows colors chars-per-pixel */
"40 40 67 1 ",
"  c #00C2D7",
". c #191527",
"X c #212137",
"o c #06070B",
"O c #1A1829",
"+ c #000001",
"@ c #1F1F33",
"# c #171424",
"$ c #00C5DA",
"% c #1C192D",
"& c #1D1B2F",
"* c white",
"= c #031519",
"- c #25273E",
"; c #020E11",
": c #00A6B8",
"> c #009FAE",
", c #2A2D47",
"< c #2F334D",
"1 c #303653",
"2 c #282B42",
"3 c #00BCD0",
"4 c #23243A",
"5 c #007580",
"6 c #13101D",
"7 c #353D5D",
"8 c #3F4969",
"9 c #3A4260",
"0 c #0C0B13",
"q c #00555E",
"w c #00B4C7",
"e c #022225",
"r c #003135",
"t c gray15",
"y c #021C1E",
"u c #343B59",
"i c #007B86",
"p c #8A8989",
"a c #00A9BB",
"s c #004147",
"d c #444F6E",
"f c gray91",
"g c #102224",
"h c #006772",
"j c #00AFC1",
"k c #4B5876",
"l c #008490",
"z c #005C66",
"x c #696767",
"c c #CFCECE",
"v c #0092A1",
"b c #00717C",
"n c #002A2F",
"m c #00A3B4",
"M c #008B98",
"N c #373534",
"B c #546282",
"V c #004B52",
"C c #484545",
"Z c #B7B5B5",
"A c #555151",
"S c #C3C3C2",
"D c #363C54",
"F c gray64",
"G c #B2B1B1",
"H c gray98",
"J c LightGray",
/* pixels */
"97,&-98<&##&<89-.#.X17,&-98<&##&<89-.###",
"9u2&-98<&##&<89-.#.X1u2&-98<&##&<89-.###",
"1<-%4u9<&##&21,&666O4-@#&<12&##&<9u4.###",
",2XO417,%##%6;y===========;6&##%,714....",
"4X&O@<1-%##O0qa:::::::::>is0%##%-1<@O@4-",
"&%O.&2,4O#0o+h$$$$$$$$$ 3>V+o0#O4,2&%2u9",
"...O&4-X@.oz5:            >zso#OX2-&&<8d",
"#.%@@@X4O6;>$$             >bo06X<,@&<8d",
"#.@44&@O;rVj$$$$$$         3msno&u<X&,78",
"#O@-4%O6r3  waaa:j        3aaMby#22@%4<1",
"#O@-40o;V 3aqyggge>$    3jhygggooo0O.&XX",
"O%@4Xoz>j$jMrxccZtv$   $wvsAccSNVso.....",
"@@@@&o5$3jqr;p**ftrsM$3wzr;x**HCyyo&@%.#",
"2-@%.ob$mi=xpJ**HFpNq$:MyApS***GpC04-@.#",
"u1-60+b$>igc*******xq$:leG*******poO@XO#",
"kd,oerM$>igc*******xq$:leG*******poyoX%#",
"Bk<=>3  >igcHfffff*xq$:leGHfffff*pnb;X&#",
"Bk,=:$  >igcpttttNJxq$:leZFtttttSpr5;X&#",
"kd2=:$  >igcx++++oSxq$:leZp+++++Fpr5;X%#",
"d82=:$  ml=At+++++Atq$aMyCN+++++CNr5;@%#",
"89-=:$  3whqy+++++sqv$335qn+++++rqh5;..#",
"9u4=:$    $ s+++++v$$   $$z+++++i$>5;6.#",
"1<@=:$      heeeenm$     $ieeeeev >5;6##",
",2%=:$      3wwwww        3wwwww  >5;6..",
"4X.=:$                            >5;O4-",
"&%#=:$                           3>5;4u9",
"..6=:$                            >5;28d",
"#.#=:$                            >5;28d",
"#O.=:$                            >5;-78",
"#OO=:$                           3>5;@<1",
"#OO=:$       33          33       >5;OXX",
"O%O=:$    3whrrz3     3jqrr5     3>5;#..",
"@@O=a$   $jvroon3$   $aMyo+V$$    >5;#.#",
"2-%;zba  3bVy06=h5w  jhV;60nhl3  mzsoOO#",
"u140o+5$al;oo6.00ov mbooo##0oyj3>q+06@O#",
"kd<&Oozmlh;O&O@<<;i>iqoOO@X@#=v>is0,1-%#",
"BkD@%0;=;;oXXOX110;==;0&%4-@#o==;o617,%#",
"BkD@%X@%#%-<-%X17-.XD9<@%4-@O%-2@#@17,%#",
"kd<&%4-@OX<u2&X17,&-9d<&%4-@OX1u2&X17,%#",
"kd<&%4-@OX17,&X17,&-98<&%4-@OX17,&X17,%#"
};
