/* XPM */
static char *_a18be99af3e43209e25f7fa11401dbeTaw85BaDA5H4o4EF[] = {
/* columns rows colors chars-per-pixel */
"40 40 103 2 ",
"   c #181425",
".  c #1A1629",
"X  c #24253C",
"o  c #1F1E33",
"O  c #CE2955",
"+  c #212238",
"@  c #1C1A2D",
"#  c #E83D62",
"$  c #1D1B2E",
"%  c #191527",
"&  c #1F1D31",
"*  c #303653",
"=  c #2D304A",
"-  c #252840",
";  c #292C46",
":  c #272A42",
">  c #343A57",
",  c #202036",
"<  c #23243A",
"1  c #1A182A",
"2  c #1D1C2F",
"3  c #EB3D62",
"4  c #E73C61",
"5  c #1B192B",
"6  c #3A4260",
"7  c #C72451",
"8  c #2D324E",
"9  c #363E5D",
"0  c #30344D",
"q  c #C52250",
"w  c #DA325B",
"e  c #3E4767",
"r  c #151324",
"t  c #DE375D",
"y  c #353D5B",
"u  c #D52E58",
"i  c #843658",
"p  c #424D6B",
"a  c #CC4269",
"s  c #FDB83D",
"d  c #4B5675",
"f  c #6E2E4C",
"g  c #64233D",
"h  c #D12855",
"j  c #504366",
"k  c #CA2855",
"l  c #A23D5F",
"z  c #832746",
"x  c #251F33",
"c  c #F7A940",
"v  c #8D2B49",
"b  c #505A7C",
"n  c #D54C4F",
"m  c #52253E",
"M  c #F88F47",
"N  c #F46A4A",
"B  c #FDA232",
"V  c #455070",
"C  c #BB2651",
"Z  c #6D3759",
"A  c #5A304C",
"S  c #3E3B4C",
"D  c #A92C52",
"F  c #654D3C",
"G  c #942E4D",
"H  c #9D2E50",
"J  c #C93B5E",
"K  c #722643",
"L  c #D34B78",
"P  c #D43A5D",
"I  c #A27C40",
"U  c #5E4D75",
"Y  c #6BB3F8",
"T  c #31182C",
"R  c #C02954",
"E  c #42415E",
"W  c #2F263C",
"Q  c #833B66",
"!  c #4D4447",
"~  c #33282C",
"^  c #E6A63E",
"/  c #B57E3B",
"(  c #7F633D",
")  c #E84163",
"_  c #BF6696",
"`  c #B35295",
"'  c #529AFE",
"]  c #576585",
"[  c #AF6B40",
"{  c #3A2842",
"}  c #8C4970",
"|  c #ED4E59",
" . c #8E486F",
".. c #F79930",
"X. c #737DD8",
"o. c #3E3135",
"O. c #8B4B6B",
"+. c #523628",
"@. c #D0802F",
"#. c #BC3657",
"$. c #AA5848",
"%. c #8F8BCA",
"&. c #1A2533",
/* pixels */
"e 9 ; 2 X 6 p 0 2     2 0 p 6 X %   % + * 9 ; 2 X 6 p 0 2     2 0 p 6 X %       ",
"6 y : $ X 9 e 0 2   r @ 0 j E X %   % o.! y : $ X E j 0 @ r   2 0 e 9 X %       ",
"* 8 X @ X y 6 = $   T g l a l W   r ~ @.^ F X 5 W l a l g T   $ = 6 y X %       ",
"; : , 5 + * 9 ; @ r z # 3 3 # G @ r +...s ( , $ G # 3 3 # z r @ ; 9 * < % % % % ",
"< + 2 . , = * - 5 r v 3 # # # 4 v x F ..s ( & v 4 # # # 3 v r 5 - * = , . & < X ",
"$ @ . % & : ; + 1 r g t 3 # # # # H $.B s / H 4 # # # 3 t g r 1 + ; : & @ : > 6 ",
"    % . 2 + X + & @ . g P 3 3 # a a N B s M a a # 3 3 P g $ % 1 + : X 2 2 0 e V ",
"  % @ o o o + : = : & 5 A J a  .j i N B s M i j  .a J A = : & @ X 8 ; o 2 = e p ",
"  . o X + 2 & = 6 > < @ = U j * = i N B s M i = * j U > 6 > < $ : > 8 , $ ; 9 e ",
"  . o - < @ 2 = e 9 X 1 > b 0 = = i N B s M i = = = b e e 9 X @ X = ; o 5 X 8 * ",
"  . o - < @ $ = 6 > X m i U > = = i N B s M i = = > U Q Z > < . 2 , o 5 % 2 , + ",
". 5 o X + @ @ : > A G 7 O D Q j * i | M c N i * j Q D O k H m % r % % . . % % % ",
"o o o o 2 . 5 { v R h O O 7 q a } l # ) | # l } a 7 q O O h R z T   . 2 & @ %   ",
"- - , 5 % % g C h O O O O q 7 # # 4 # # # # ) # # 7 q O O O O h C g $ + X o .   ",
"y * - 5 % $ H h O O O O O q 7 # # # # # # # 4 # # 7 q O O O O O h D x - ; + 1   ",
"d p 0 & 5 x D h O O O O O q 7 # w t # # # # t w # 7 q O O O O O O D x = * - 5   ",
"] b > & @ X [ n O O O O O q 7 4 u w # # # # w u 4 7 q O O O O O n [ < * y ; @   ",
"b d > & @ < I c n O O O O q 7 4 u w # # # # w u 4 7 q O O O h n c I + * 9 ; @   ",
"d V 0 & $ + ( s c n k O O q 7 4 u w # # # # w u 4 7 q O O k n c s F + * y ; @   ",
"V e = 2 o ; ! ^ c F z k O q 7 # w t # # # # t w # 7 q O k z F c ^ ! : 8 8 X 5   ",
"e 6 ; 2 + > 6 I / $ x K k q 7 # # # # # # # # # # 7 q k K $ x / I y * ; + 2 %   ",
"6 y : $ X 9 e S ~     & f C 7 # t t # # # # t t # 7 C f &   % ~ S e 9 X .       ",
"* 8 X @ X y 6 = @     $ = Z C 4 u w # # # # w u # R Z = $     @ = 6 y X %       ",
"; : , 5 + * 9 ; @     @ ; 9 i 4 u w # # # # w u 4 i 9 ; @     @ ; 9 * < % % % % ",
"< + 2 . , = * - @     @ - * Z 4 u w # # # # w u 4 Z * - @     @ - * = , . & < X ",
"$ @ . % & : ; + 1     1 + ; f # w t # # # # t w # f ; + 1     1 + ; : & @ : > 6 ",
"    % . 2 + X + & @ . 1 + : f # 4 4 # # # # 4 4 # f X + & @ . 1 + : X 2 2 0 e V ",
"  % @ o o o + : = : & @ X 8 A t 3 # # # # # # # t m , : = : & @ X 8 ; o 2 = e p ",
"  . o X + 2 & = 6 > < $ : > 8 f P 3 # # # # 3 P f & & = 6 > < $ : > 8 , $ ; 9 e ",
"  . o - < @ 2 = e 9 X @ X = ; o m J # L L # J A < @ 2 = e 9 X @ X = ; o 5 X 8 * ",
"  . o - < @ $ = 6 > < . 2 , o 5 % v L X.Y L G X < @ $ = 6 > < . 2 , o 5 % 2 , + ",
". 5 o X + @ @ : > 0 + %   % % . % v ` ' Y _ G < + @ @ : > 0 + %   % % . . % % % ",
"o o o o 2 . 5 X 8 ; o %     . 2 2 z ` ' Y _ z o 2 . 5 X 8 ; o %     . 2 & @ %   ",
"- - , 5 % % 1 , : X 2 %     @ + < K ` ' Y _ K 1 % % 1 , : X 2 %     @ + X o .   ",
"y * - 5 % 5 2 o + , & @ . % & : ; m a X.%.L m 1 % 5 2 o + , & @ . % & : ; + 1   ",
"d p 0 & 5 o + o 2 & , + 2 . , = * { #.) ) J S 2 5 o + o 2 & , + 2 . , = * - 5   ",
"] b > & @ < X o 1 2 X : , 5 + * y : K 4 # O.> & @ < X o 1 2 X : , 5 + * y ; @   ",
"b d > & @ < - o 1 o ; 8 X @ + * 9 ; x H l d > & @ < - o 1 o ; 8 X @ + * 9 ; @   ",
"d V 0 & @ < - o 1 + 8 > : $ + * y ; 2 W E p 0 & @ < - o 1 + 8 > : $ + * y ; @   ",
"d p 0 2 @ < - o 1 + * 9 ; $ + * y ; 2 X 6 p 0 2 @ < - o 1 + * 9 ; $ + * y ; @   "
};
