/* XPM */
static char *result[] = {
/* columns rows colors chars-per-pixel */
"40 40 104 2 ",
"   c #E93D62",
".  c #222238",
"X  c #191729",
"o  c #292C46",
"O  c #1F1E33",
"+  c #CE2955",
"@  c #1D1B2F",
"#  c #181425",
"$  c #1B192C",
"%  c #191527",
"&  c #23243A",
"*  c #1E1D31",
"=  c #202036",
"-  c #2D2F4A",
";  c #24253C",
":  c #E73C62",
">  c #25273D",
",  c #1C1A2D",
"<  c #303653",
"1  c #343B58",
"2  c #1B172A",
"3  c #C62250",
"4  c #262941",
"5  c #353D5C",
"6  c #2D324F",
"7  c #424C6B",
"8  c #3A415E",
"9  c #3D4564",
"0  c #EC3D63",
"q  c #272A43",
"w  c #30354D",
"e  c #4B5676",
"r  c #D52E58",
"t  c #C82551",
"y  c #A0395C",
"u  c #912D4C",
"i  c #554266",
"p  c #DE355D",
"a  c #FDB83D",
"s  c #65243E",
"d  c #6E304E",
"f  c #333552",
"g  c #CC426A",
"h  c #DA325B",
"j  c #D12855",
"k  c #D9315B",
"l  c #151325",
"z  c #373854",
"x  c #7C3456",
"c  c #D73A5E",
"v  c #BA2751",
"b  c #C8385B",
"n  c #5D2A47",
"m  c #842846",
"M  c #322942",
"N  c #F88F47",
"B  c #C72A55",
"V  c #51213A",
"C  c #F9A541",
"Z  c #853655",
"A  c #A4284B",
"S  c #546282",
"D  c #DB4C50",
"F  c #A17836",
"G  c #2A1D2E",
"H  c #473A39",
"J  c #30304C",
"K  c #8D486F",
"L  c #8B385D",
"P  c #D24977",
"I  c #FA9C31",
"U  c #FDA432",
"Y  c #E0395F",
"T  c #654834",
"R  c #E5A43B",
"E  c #372929",
"W  c #AB613E",
"Q  c #722642",
"!  c #7F3D65",
"~  c #F2664F",
"^  c #664B50",
"/  c #F56E46",
"(  c #BF6696",
")  c #E84164",
"_  c #B35295",
"`  c #66B9FE",
"'  c #529AFE",
"]  c #432844",
"[  c #494B5D",
"{  c #C84A4B",
"}  c #F2B13D",
"|  c #B12F5C",
" . c #5F517B",
".. c #795C38",
"X. c #B4804C",
"o. c #ED4E59",
"O. c #7092E5",
"+. c #321F35",
"@. c #BA8E46",
"#. c #D7517B",
"$. c #D18231",
"%. c #896B3D",
"&. c #8076CB",
"*. c #8F8BCA",
/* pixels */
"9 5 o @ > 8 7 w @ # # @ w 7 8 > % # % . < 5 o @ > 8 7 w @ # # @ w 7 8 > % # # # ",
"8 1 q @ > 8 7 w @ # # @ w 7 8 > % # % = 6 1 q @ > 8 7 w @ # # @ w 7 8 > % # # # ",
"< 6 ; , ; 1 9 - @ # # @ - 9 1 ; % # # O o 6 ; , ; 1 9 - @ # # @ - 9 1 ; % # # # ",
"o q = 2 . < 5 o , # # , o 5 < & % # % * > 4 = 2 . < 5 o , # # , o 5 < & % % % % ",
"& . @ X = - < 4 $ # # $ 4 < - = X * & ; ; . @ X = - < 4 $ # # $ 4 < - = X * & > ",
"@ , X % * 4 o . 2 # # 2 . o 4 * , q 1 f ; $ X 2 O M o . 2 # # 2 . o 4 * , q 1 8 ",
"# # % X @ . > . * , % 2 = q > @ @ w 9 8 H T F W A A Q . * , % 2 = q > @ @ w 7 e ",
"# % $ O O O . 4 - q * $ > 6 o O @ - [ X.R a C D j j v ] - q * $ > 6 o O @ - 9 7 ",
"# % O ; . @ * - 9 1 & @ q 1 6 = @ o [ @.} C D + + + j u 9 1 & @ q 1 6 = @ o 5 9 ",
"# X O > & , @ J 9 5 ; , ; - o O $ ; - - T { + + + + + B i 5 ; , ; - q * $ ; 6 < ",
"# X O > & , @ - 8 1 & X @ = O 2 % @ = = m + + + + + + j y z & X @ = s u m +.= . ",
"X $ O ; . , , q 1 6 = % # % % % % % % Q + + + + + + + + B n = # # s c 0   s l % ",
"O O O O @ X 2 > 6 o O % # # X @ * , s B + + + + + + + + + L f O V c     0 u % # ",
"4 > = $ % % 2 = 4 > @ # l l $ = ; V v 3 3 3 3 3 3 3 3 3 |  .e i b 0       b G # ",
"1 f > $ % $ @ O . = * @ V s s d x v t 3 3 3 3 3 3 3 3 3 ! z J i g         u G # ",
"e 7 w * 2 O . O @ * = n c   : : : : : : : : : : : :   g i J J f K     : y M $ # ",
"S e 1 * , . ; O X @ n c   : k r r r p   h r r r p   : K f - - - i g : y 8 o , # ",
"S e z * G V d m m u b     : p h h h Y   p h h h p   : y x Z Z Z L g y f 5 o , # ",
"e 7 z Q v g _ _ _ P                                 : ) o./ / / ~ ~ W ^ ^ H , # ",
"7 7 y : ) &.' ' ' O.P                                 ) N U U U U I I I I $.E l ",
"7 9 y : ) *.` ` ` O.P                               : o.C a a a a a a a a R E l ",
"8 1 M Q b P ( ( ( #.                                  ) ~ N N N N N X.%...H % # ",
"< 6 ; $ M ^ ! Z u u b     : p k k k Y   p k k k p   : y Z Z Z Z L g y ; l l # # ",
"o q = 2 . < 5 o $ l V c   : k r r r p   h r r r p   : K < - - - i g : u 2 # % % ",
"& . @ X = - < 4 $ # # s c     : : :     : : : :       g i J J f K :   : u G & > ",
"@ , X % * 4 o . 2 # # 2 n d d s Q v t t t t t t t t t t ! z J i g       : y z 8 ",
"# # % X @ . > . * , % X = q ; , @ n v 3 3 3 3 3 3 3 3 3 |  .e i b         b i e ",
"# % $ O O O . 4 - q * $ > 6 o O @ - x B + + + + + + + + + L z & n c     0 y 9 7 ",
"# % O ; . @ * - 9 1 & @ q 1 6 = @ o 5 Z + + + + + + + + B d . , q x Y 0   d 5 9 ",
"# X O > & , @ J 9 5 ; , ; - o O $ ; - M m + + + + + + j y 8 ; , ; J d u m M 6 < ",
"# X O > & , @ - 8 1 & X @ = O 2 % @ = . T { + + + + + B i 1 & X @ = * X % , = . ",
"X $ O ; . , , q 1 6 = % # % % % % % E F } C D + + + + u 1 6 = % # % % % % % % % ",
"O O O O @ X 2 > 6 o O % # # X @ * $ G F R a C D j j v ] 6 o O % # # X @ * $ % # ",
"4 > = $ % % 2 = 4 > @ % # # , . ; O X , H ..F W A A s = 4 > @ % # # , . ; O % # ",
"1 f > $ % $ @ O . = * , X % * 4 o . $ = - 6 > @ 2 @ * O . = * , X % * 4 o . 2 # ",
"e 7 w * 2 O . O @ * = = @ X = - < 4 @ > 8 7 w @ 2 O . O @ * = = @ X = - < 4 $ # ",
"S e 1 * , & > O 2 @ > 4 = 2 . < 5 o @ q 7 e 1 * , & > O 2 @ > 4 = 2 . < 5 o , # ",
"S e z * , & > O 2 O o 6 ; $ . < 5 o @ 4 9 e z * , & > O 2 O o 6 ; $ . < 5 o , # ",
"e 7 w * , & > O 2 = 6 1 q @ . < 5 o @ > 8 7 w * , & > O 2 = 6 1 q @ . < 5 o , # ",
"e 7 w * , & > O 2 . < 5 o @ . < 5 o @ > 8 7 w * , & > O 2 . < 5 o @ . < 5 o , # "
};
