/* XPM */
static char *result[] = {
/* columns rows colors chars-per-pixel */
"40 40 106 2 ",
"   c #171425",
".  c #CE2955",
"X  c #1E1D31",
"o  c #292C46",
"O  c #191527",
"+  c #191729",
"@  c #24253C",
"#  c #E93D62",
"$  c #1D1B2F",
"%  c #1B192C",
"&  c #1A172A",
"*  c #222339",
"=  c #303653",
"-  c #202136",
";  c #E73D62",
":  c #212238",
">  c #1F1F34",
",  c #1F1E33",
"<  c #272942",
"1  c #C52350",
"2  c #2D304A",
"3  c #EB3D62",
"4  c #353D5C",
"5  c #26263D",
"6  c #D12855",
"7  c #2D324E",
"8  c #25273F",
"9  c #3A415F",
"0  c #DA325B",
"q  c #353A56",
"w  c #343B59",
"e  c #414B69",
"r  c #2E2E49",
"t  c #66253F",
"y  c #C82652",
"u  c #DE365D",
"i  c #4C5777",
"p  c #D52E58",
"a  c #31354F",
"s  c #3C4666",
"d  c #30334D",
"f  c #98314F",
"g  c #3C4462",
"h  c #2A2A41",
"j  c #FDB83D",
"k  c #444F6F",
"l  c #B72752",
"z  c #712744",
"x  c #261F31",
"c  c #CD4269",
"v  c #833555",
"b  c #FCA031",
"n  c #572541",
"m  c #24192B",
"M  c #C6395B",
"N  c #352431",
"B  c #D43A5D",
"V  c #8C314F",
"C  c #504165",
"Z  c #F88F47",
"A  c #B95C96",
"S  c #D14A77",
"D  c #F9A640",
"F  c #664D3D",
"G  c #8F2847",
"H  c #842347",
"J  c #4B1B34",
"K  c #A52A4D",
"L  c #DB4C50",
"P  c #5E4D75",
"I  c #E93C61",
"U  c #3D374E",
"Y  c #B26A44",
"T  c #8D486F",
"R  c #8B375D",
"E  c #7E3D63",
"W  c #6BB3F8",
"Q  c #AE823C",
"!  c #9D7639",
"~  c #3B2740",
"^  c #59535C",
"/  c #5D334F",
"(  c #EC4C5A",
")  c #F56E46",
"_  c #F2664F",
"`  c #529AFE",
"'  c #576585",
"]  c #525F7F",
"[  c #C94C4D",
"{  c #F2B13D",
"}  c #A24065",
"|  c #E5A33C",
" . c #A03859",
".. c #806135",
"X. c #8880CA",
"o. c #897458",
"O. c #E7AA41",
"+. c #302A35",
"@. c #553A2E",
"#. c #D48636",
"$. c #6684E4",
"%. c #E93631",
"&. c #4C4B25",
"*. c #261455",
"=. c #172931",
"-. c #CE1D46",
/* pixels */
"s 4 o $ 5 9 e a $     $ a e 9 5 O   O : = 4 o $ 5 9 e a $     $ a e 9 5 O       ",
"9 w < $ 5 9 e d $     $ d e 9 5 O   O - 7 w < $ 5 9 e d $     $ d e 9 5 O       ",
"= 7 @ % @ w g 2 $     $ 2 g w @ O   O , o 7 @ % @ w g 2 $     $ 2 g w @ O       ",
"o < - % * = 4 o %     % o 4 = * O O O X @ < - % * = 4 o %     % o 4 = * O O O O ",
"* : $ + - 2 = 8 %     % 8 = 2 - + X @ @ @ : $ + - 2 = 8 %     % 8 = 2 - + X @ 5 ",
"$ % + O X < o * &     & * r h x X < q a @ $ + O X < o * &     & * o < X $ h q 9 ",
"  O O + $ * @ : X % O & - z K K Y Q o.^ 5 O O + $ * @ : X % O & - < 5 $ $ d e k ",
"  O % , > > : < 2 h X % ~ l 6 6 L D j O.! x % , > > : < 2 h X % @ 7 o , $ 2 s k ",
"  O , @ * $ X 2 g q @ $ H 6 . . . L D { Q N X @ * $ X 2 g q @ $ < w 7 - $ o 4 s ",
"  + > 8 * % $ 2 s 4 @ J 1 . . . . . [ F x & > 8 * % $ 2 s 4 @ % @ 2 o , % @ 7 = ",
"  O N V f t $ 2 9 q 5 G 6 . . . . . . H m + > 8 * $ $ 2 9 q * + $ - , % O $ - : ",
"+ & t # 3 u t < w 7 n y . . . . . . . . z % > @ : % % o w a - O   O O O O O O O ",
"> > f 3 ; # B / q 9 R . . . . . . . . . y t > > $ + % @ 7 o , O     + $ X % O   ",
"< ~ M # ; ; # M P i P l 1 1 1 1 1 1 1 1 1 l n &     + - < @ $ O     % : @ , O   ",
"w U  .; # ; # c C d q E y y y y y y y y y y l z t t t n * - X % + O X < o * &   ",
"i e U f ; # ; T a r r C c I ; ; ; ; ; ; ; I I ; ; ; # u t X - - $ + - 2 = 8 %   ",
"' i q x G ; c C r r r = T ; ; 0 p p p 0 ; u p p p 0 ; # B n @ < > + - = 4 o %   ",
"] i = $ $ f c R v v v v } ; ; u 0 0 0 u ; u 0 0 0 u ; ; # B f f V z n U 4 o %   ",
"i k F ....Y Z Z Z Z Z _ # ; ; ; ; ; ; ; ; # ; ; ; ; ; ; ; # S A A A S M E r %   ",
"k ^ | j j j j j j j j D ( ; ; ; ; ; ; ; ; ; ; ; ; ; ; ; 3 S W W W W X.; ; f m   ",
"e ^ #.b b b b b b b b Z ( ; ; ; ; ; ; ; ; ; ; ; ; ; ; ; I S $.` ` ` X.; ; f m   ",
"9 w U @.F Y _ _ ) ) ) ( # ; ; ; ; ; ; ; ; ; ; ; ; ; ; ; # # S A A A S M t m     ",
"= 7 @ & 5  .c R v v v v } ; ; u 0 0 0 u ; u 0 0 0 u ; ; # M G G V E / h         ",
"o < > m V ; c C r r r = T ; ; 0 p p p 0 ; u p p p 0 ; # B J   % o 4 = * O O O O ",
"* - x f ; # ; T = r r C c I ; ; ; ; ; ; ; ; ; ; ; ; ; B t     % 8 = 2 - + X @ 5 ",
"$ x f ; # ; # c C d q E 1 1 1 1 1 1 1 1 1 1 l z t z z n &     & * o < X $ h q 9 ",
"  m M 3 ; ; # M P i P l 1 1 1 1 1 1 1 1 1 l J O $ : @ - X % O & - < 5 $ $ d e k ",
"  O f 3 ; # B / = 9 R . . . . . . . . . y t % X > > : < 2 h X % @ 7 o , $ 2 s k ",
"  O t ; 3 u t 2 g q n y . . . . . . . . z % X @ * $ X 2 g q @ $ < w 7 - $ o 4 s ",
"  & N V V t $ 2 s 4 5 G 6 . . . . . . H x & > 8 * % $ 2 s 4 @ % @ 2 o , % @ 7 = ",
"  + > 8 * % $ 2 9 q * J 1 . . . . . [ F m + > 8 * $ $ 2 9 q * + $ - , % O $ - : ",
"+ % > @ : % % o w a - O H 6 . . . L D { Q N > @ : % % o w a - O   O O O O O O O ",
"> > > > $ + % @ 7 o ,   N l 6 6 L D j | ! +.> > $ + % @ 7 o , O     + $ X % O   ",
"< 8 - % O O & - < @ $ O   t K K Y ! F N * @ - % O O & - < @ $ O     % : @ , O   ",
"w = 8 % O % $ > : - X % + O x h r : & > 2 a 8 % O % $ > : - X % + O X < o * &   ",
"i e d X % > : > $ X - - $ + - 2 = 8 $ 5 9 e d X % > : > $ X - - $ + - 2 = 8 %   ",
"' i q X % * 5 > & $ @ < - % : = 4 o $ h e i q X % * 5 > & $ @ < - % : = 4 o %   ",
"] i q X % * 8 > & , o 7 @ % : = 4 o $ h e i q X % * 8 > & , o 7 @ % : = 4 o %   ",
"i k a X % * 8 > & - 7 w < $ : = 4 o $ 5 g k a X % * 8 > & - 7 w < $ : = 4 o %   ",
"i k d X $ * 8 > & : = 4 o $ : = 4 o $ 5 9 e a X $ * 8 > & : = 4 o $ : = 4 o %   "
};
