/* XPM */
static char *_de5dc304cc24e9fe417fd33aa084c4axnHZIYIg6MSSfYEU[] = {
/* columns rows colors chars-per-pixel */
"40 40 103 2 ",
"   c #171425",
".  c #222238",
"X  c #1C1B2E",
"o  c #1D1B2F",
"O  c #191729",
"+  c #181527",
"@  c #1F1E33",
"#  c #E93D62",
"$  c #1B192C",
"%  c #CF2955",
"&  c #292C46",
"*  c #23253C",
"=  c #202036",
"-  c #272A42",
";  c #303653",
":  c #C62350",
">  c #25273E",
",  c #2D324E",
"<  c #1E1D32",
"1  c #1F1D30",
"2  c #E73C62",
"3  c #EB3D62",
"4  c #23233A",
"5  c #353E5D",
"6  c #2C2F4A",
"7  c #2F304A",
"8  c #3B4363",
"9  c #31344D",
"0  c #404A68",
"q  c #DA325B",
"w  c #333A59",
"e  c #343954",
"r  c #3B415D",
"t  c #C92753",
"y  c #D52E58",
"u  c #DF355D",
"i  c #4C5778",
"p  c #912F4E",
"a  c #853657",
"s  c #FDB83D",
"d  c #363C57",
"f  c #672842",
"g  c #444E6D",
"h  c #2D2234",
"j  c #524266",
"k  c #FCA031",
"l  c #9C3253",
"z  c #511E37",
"x  c #852949",
"c  c #D93B5F",
"v  c #BA2550",
"b  c #6E2B4A",
"n  c #2B263F",
"m  c #AB2F56",
"M  c #F46A4B",
"N  c #B95C96",
"B  c #A88245",
"V  c #C8385A",
"C  c #ECAC3F",
"Z  c #F8A540",
"A  c #6D233E",
"S  c #A03C60",
"D  c #D34A78",
"F  c #546282",
"G  c #DB4C4F",
"H  c #BA7D4B",
"J  c #CA446A",
"K  c #8F7958",
"L  c #5D4032",
"P  c #79304F",
"I  c #8D486F",
"U  c #E53E65",
"Y  c #CF4168",
"T  c #F78B47",
"R  c #455172",
"E  c #472742",
"W  c #392E44",
"Q  c #693A5B",
"!  c #5E223D",
"~  c #D1395C",
"^  c #EC4061",
"/  c #585258",
"(  c #833B66",
")  c #592C47",
"_  c #373452",
"`  c #66B9FE",
"'  c #529AFE",
"]  c #D22955",
"[  c #C74A4B",
"{  c #5F517B",
"}  c #3D3034",
"|  c #ED4E59",
" . c #F99848",
".. c #8880CA",
"X. c #BD3657",
"o. c #736B64",
"O. c #D0812F",
"+. c #A34F3C",
"@. c #79A0E5",
"#. c #6684E4",
"$. c #CA4473",
"%. c #17222E",
"&. c #221B2F",
/* pixels */
"8 5 & o > r 0 9 o     o 9 0 r > +   + . ; 5 & o > r 0 9 o     o 9 0 r > +       ",
"8 w - X > r 0 9 o     o 9 0 r > +   + h _ w - X > r 0 9 o     o 9 0 r > +       ",
"; , * X * d 8 6 X     X 6 8 d * +   &.l S _ * X * d 8 6 X     X 6 8 d * +       ",
"& - = $ . ; 5 & X     X & 5 ; 4 +   A 2 2 P = $ . ; 5 & X     X & 5 ; 4 + + + + ",
"4 . o O = 6 ; > $     $ > ; 6 = O h X.U U X.h O = 6 ; > $     $ > ; 6 = O 1 4 > ",
"X X O + < - & . O     $ . & - < $ ) $.....D z   < - & . O     $ . & - < X - d r ",
"+ + + O o . * . 1 $ O O = - > o X P N ' ` N A + o . * . 1 $ O O = - > o o 9 0 R ",
"  + $ @ @ @ . - 7 - 1 $ * , & @ X x N ' ` N x < @ @ . - 7 - 1 $ * , & @ o 6 8 g ",
"  O @ * . o 1 7 8 d 4 X - w , = X p N ' ` N p 4 . o 1 7 8 d 4 X - w , = X & 5 8 ",
"  O @ > 4 X o 7 0 5 * $ * , & @ $ p D #.@.D p * 4 X o 7 0 5 * $ * , & @ $ * , ; ",
"  O @ > 4 X X 6 8 e 4 O o = @ O z V # D D # ~ ) 4 X X 6 8 e 4 O o = @ $ O o = . ",
"O $ @ * . X X - w , = + + + O ! ~ # # # # # # c f X X - w , = + + + + O O O + + ",
"@ @ @ @ o O $ * , & @ +     z c # # # # # # # # c z O * , & @ +     O o < $ +   ",
"- > = $ O + O = - * o +     f # 2 2 # # # # 2 2 # A O = - * o +   + X . * @ O   ",
"d ; > $ + $ o @ . = < X O   f 2 q u # # # # u q # f X @ . = < X O + < - & . $   ",
"i g 9 1 $ @ . @ o < = = o + f 2 y q # # # # q y 2 b = @ o < = = o O = 6 ; > $   ",
"F i d 1 X 4 > @ O o * - = O b 2 y q # # # # q y 2 P * @ O o * - = $ . ; 5 & X   ",
"F i e 1 X 4 > @ O @ & , > z v 2 y q # # # # q y 2 v ! @ O @ & , * $ . ; 5 & X   ",
"i g 9 1 X 4 > h h = , w b v : 2 u u # # # # u u # t v A $ = , r W o 4 ; w & X   ",
"R 0 7 o @ & 7 B B . & P t : : 2 # # # # # # # # # : : t A = 7 H B - - , , * $   ",
"0 8 6 o . e / C C L x t % : : 2 q u # # # # u q 2 t : % % x L C C / ; & = o +   ",
"8 w - X > 5 K s Z [ t % % : : 2 y q # # # # q y 2 t : % % t [ Z s K 5 > O +     ",
"; , * X * w B Z G % % % % : : 2 y q # # # # q y 2 t : % % % % G Z B w * +       ",
"& - = $ . e H G % % % % % : : 2 y q # # # # q y 2 t : % % % % % G H e . + + + + ",
"4 . o O = 7 m % % % % % % : : 2 q u # # # # u q # t : % % % % % % m 7 = O 1 4 > ",
"X X O + < n m ] % % % % % : : 2 # # # # # # # # # : : % % % % % ] m n < X - d r ",
"+ + + O o 4 b v % % % % % : : # 2 U # 2 2 # U 2 # t : % % % % % v b > o o 9 0 R ",
"  + $ @ @ @ . E p t % % % : : J I S # ^ | # S I J : : % % % : x E , & @ o 6 8 g ",
"  O @ * . o 1 7 8 Q p t % m ( j ; a | T Z M a ; j ( m % t l E o - w , = X & 5 8 ",
"  O @ > 4 X o 7 0 5 n z a { e 7 6 a M k s  .a 6 7 e { ( Q r * $ * , & @ $ * , ; ",
"  O @ > 4 X X 6 8 e 4 + 9 i 9 7 6 a M k s  .a 6 7 9 i 8 5 e 4 O o = @ $ O o = . ",
"O $ @ * . X X - w , = + @ j j _ 6 a M k s T a 6 _ j j , w , = + + + + O O O + + ",
"@ @ @ @ o O $ * , & @   z V J I j a M k s T a j I J V ) , & @ +     O o < $ +   ",
"- > = $ O + O = - * 1 ! ~ 3 # # Y Y M k s T Y Y 2 # # c b > o +   + X . * @ O   ",
"d ; > $ + $ o @ . = f c # # # # 2 l +.k s H l 2 # # # # c f < X O + < - & . $   ",
"i g 9 1 $ @ . @ o < p 3 # # # 2 S n L k s K 9 p 2 # # # 3 p = = o O = 6 ; > $   ",
"F i d 1 X 4 > @ O X x # 3 # # S r - L k s K e h p 2 # 3 # x * - = $ . ; 5 & X   ",
"F i e 1 X 4 > @ O @ W Q l V l _ 5 & } O.C o.e 1 &.l V l f h & , * $ . ; 5 & X   ",
"i g 9 1 X 4 > @ O = , w & h n ; 5 & o } / g 9 1 $ n W @ O = , w - X . ; 5 & X   ",
"i g 9 1 X 4 > @ $ . ; 5 & X . ; 5 & o * r 0 9 1 X 4 > @ $ . ; 5 & X . ; 5 & X   "
};
