/* XPM */
static char *d33339d9905a443c97ba59032683639dtRI3cMt5HfrqueTQ[] = {
/* columns rows colors chars-per-pixel */
"32 32 12 1 ",
"  c #5A6988",
". c #667593",
"X c #808FAA",
"o c #323953",
"O c #4D5977",
"+ c #242941",
"@ c #8D9DB5",
"# c #8292AC",
"$ c #7585A0",
"% c #3F4864",
"& c #505D7B",
"* c #272C46",
/* pixels */
" .X@@@@@@@@@@@@@@@@@@@@@@@@@@@@@",
"O $XXXXXXXXXXXXXXXXXXXXXXXXXXX@@",
"o% ..........................$#@",
"+oO                          .X@",
"+oO                          .X@",
"+oO     &OOOOOOOOOOOOOOOO&   .X@",
"+oO    O%oooooooooooooooo%&  .X@",
"+oO   . %o*++++++++++++++oO  .X@",
"+oO  .$$ %o++++++++++++++oO  .X@",
"+oO  .##.&%ooooooooooo*++oO  .X@",
"+oO  .##. &OOOOOOOOOO%o++oO  .X@",
"+oO  .XX. ..         &o++oO & X@",
"+oO  .XX..$$.       .Oo++oO&%%$@",
"+oO  .XX..X#.        Oo++oO&%O$@",
"+oO  .XX..X#.        &o++oO..$#@",
"+oO  .XX..XX.        Oo++oO.$#@@",
"+oO  .XX..XX.        &o++oO .$#@",
"+oO  .XX..XX.        Oo++oO  .X@",
"+oO  .XX..XX.        &o++oO  .X@",
"+o%& .XX..X#$....... Oo++oO  .X@",
"**o%&.#X..X@#XXXX##$.Oo++oO  .X@",
"+*o%&.#X..$XXXXXXX#$.&%o*oO  .X@",
"+o . .XX. ..........  &%ooO  .X@",
"+%.$..X#$.............. %%&  .X@",
"+o . .X@#XXXXXXXXXXXX##$ &   .X@",
"+oO  .$XXXXXXXXXXXXXX##$.    .X@",
"+oO   ..................     .X@",
"+oO                          .X@",
"+oO                          .X@",
"+o%O&&OOOOOOOOOOOOOOOOOOO&OOO $X",
"**ooooooooooooooooooooooooooo% .",
"**+++++++++++++++++++++++++++oO "
};
